<mxfile host="app.diagrams.net" modified="2023-12-18T12:36:57.101Z" agent="Mozilla/5.0 (Windows NT 10.0; Win64; x64) AppleWebKit/537.36 (KHTML, like Gecko) Chrome/120.0.0.0 Safari/537.36" etag="mG6O1UwTP-fMuAlMCB2x" version="22.1.11" type="device">
  <diagram name="Page-1" id="QSxSEcef5AFu9INZKdUs">
    <mxGraphModel dx="838" dy="446" grid="1" gridSize="10" guides="1" tooltips="1" connect="1" arrows="1" fold="1" page="1" pageScale="1" pageWidth="850" pageHeight="1100" math="0" shadow="0">
      <root>
        <mxCell id="0" />
        <mxCell id="1" parent="0" />
        <mxCell id="lfvt54emDJ42RaypE45g-49" value="" style="rounded=0;whiteSpace=wrap;html=1;" vertex="1" parent="1">
          <mxGeometry x="210" y="20" width="630" height="720" as="geometry" />
        </mxCell>
        <mxCell id="lfvt54emDJ42RaypE45g-5" value="" style="edgeStyle=orthogonalEdgeStyle;rounded=0;orthogonalLoop=1;jettySize=auto;html=1;" edge="1" parent="1" source="lfvt54emDJ42RaypE45g-1" target="lfvt54emDJ42RaypE45g-2">
          <mxGeometry relative="1" as="geometry">
            <Array as="points">
              <mxPoint x="425" y="160" />
              <mxPoint x="425" y="160" />
            </Array>
          </mxGeometry>
        </mxCell>
        <mxCell id="lfvt54emDJ42RaypE45g-1" value="&lt;font style=&quot;font-size: 15px;&quot; face=&quot;Times New Roman&quot;&gt;Start&lt;/font&gt;" style="ellipse;whiteSpace=wrap;html=1;align=center;" vertex="1" parent="1">
          <mxGeometry x="360" y="50" width="130" height="80" as="geometry" />
        </mxCell>
        <mxCell id="lfvt54emDJ42RaypE45g-6" value="" style="edgeStyle=orthogonalEdgeStyle;rounded=0;orthogonalLoop=1;jettySize=auto;html=1;" edge="1" parent="1" source="lfvt54emDJ42RaypE45g-2" target="lfvt54emDJ42RaypE45g-3">
          <mxGeometry relative="1" as="geometry" />
        </mxCell>
        <mxCell id="lfvt54emDJ42RaypE45g-2" value="&lt;font face=&quot;Times New Roman&quot; style=&quot;font-size: 15px;&quot;&gt;Input request Body&lt;/font&gt;" style="shape=parallelogram;perimeter=parallelogramPerimeter;whiteSpace=wrap;html=1;fixedSize=1;" vertex="1" parent="1">
          <mxGeometry x="340" y="160" width="160" height="60" as="geometry" />
        </mxCell>
        <mxCell id="lfvt54emDJ42RaypE45g-13" value="" style="edgeStyle=orthogonalEdgeStyle;rounded=0;orthogonalLoop=1;jettySize=auto;html=1;" edge="1" parent="1" source="lfvt54emDJ42RaypE45g-3">
          <mxGeometry relative="1" as="geometry">
            <mxPoint x="420" y="370" as="targetPoint" />
          </mxGeometry>
        </mxCell>
        <mxCell id="lfvt54emDJ42RaypE45g-18" style="edgeStyle=orthogonalEdgeStyle;rounded=0;orthogonalLoop=1;jettySize=auto;html=1;entryX=0;entryY=0.5;entryDx=0;entryDy=0;" edge="1" parent="1" source="lfvt54emDJ42RaypE45g-3" target="lfvt54emDJ42RaypE45g-53">
          <mxGeometry relative="1" as="geometry">
            <mxPoint x="610" y="295" as="targetPoint" />
          </mxGeometry>
        </mxCell>
        <mxCell id="lfvt54emDJ42RaypE45g-3" value="&lt;font style=&quot;font-size: 15px;&quot; face=&quot;Times New Roman&quot;&gt;Valid&lt;br&gt;request body&lt;/font&gt;" style="rhombus;whiteSpace=wrap;html=1;" vertex="1" parent="1">
          <mxGeometry x="345" y="250" width="150" height="90" as="geometry" />
        </mxCell>
        <mxCell id="lfvt54emDJ42RaypE45g-20" style="edgeStyle=orthogonalEdgeStyle;rounded=0;orthogonalLoop=1;jettySize=auto;html=1;entryX=0;entryY=0.5;entryDx=0;entryDy=0;" edge="1" parent="1" source="lfvt54emDJ42RaypE45g-16" target="lfvt54emDJ42RaypE45g-19">
          <mxGeometry relative="1" as="geometry" />
        </mxCell>
        <mxCell id="lfvt54emDJ42RaypE45g-24" value="" style="edgeStyle=orthogonalEdgeStyle;rounded=0;orthogonalLoop=1;jettySize=auto;html=1;entryX=0.5;entryY=0;entryDx=0;entryDy=0;" edge="1" parent="1" source="lfvt54emDJ42RaypE45g-16" target="lfvt54emDJ42RaypE45g-38">
          <mxGeometry relative="1" as="geometry">
            <mxPoint x="420" y="539.9999999999999" as="targetPoint" />
          </mxGeometry>
        </mxCell>
        <mxCell id="lfvt54emDJ42RaypE45g-16" value="&lt;font face=&quot;Times New Roman&quot; style=&quot;font-size: 15px;&quot;&gt;&amp;nbsp;Flow name &lt;br&gt;already &lt;br&gt;exist&lt;/font&gt;" style="rhombus;whiteSpace=wrap;html=1;" vertex="1" parent="1">
          <mxGeometry x="350" y="370" width="140" height="100" as="geometry" />
        </mxCell>
        <mxCell id="lfvt54emDJ42RaypE45g-48" style="edgeStyle=orthogonalEdgeStyle;rounded=0;orthogonalLoop=1;jettySize=auto;html=1;exitX=1;exitY=0.5;exitDx=0;exitDy=0;" edge="1" parent="1" source="lfvt54emDJ42RaypE45g-19" target="lfvt54emDJ42RaypE45g-43">
          <mxGeometry relative="1" as="geometry">
            <mxPoint x="370" y="1130" as="targetPoint" />
            <mxPoint x="730" y="530" as="sourcePoint" />
            <Array as="points">
              <mxPoint x="790" y="420" />
              <mxPoint x="790" y="670" />
            </Array>
          </mxGeometry>
        </mxCell>
        <mxCell id="lfvt54emDJ42RaypE45g-19" value="&lt;font face=&quot;Times New Roman&quot; style=&quot;font-size: 15px;&quot;&gt;Return&lt;/font&gt;" style="rounded=0;whiteSpace=wrap;html=1;" vertex="1" parent="1">
          <mxGeometry x="610" y="395" width="120" height="50" as="geometry" />
        </mxCell>
        <mxCell id="lfvt54emDJ42RaypE45g-31" value="No" style="text;html=1;align=center;verticalAlign=middle;resizable=0;points=[];autosize=1;strokeColor=none;fillColor=none;" vertex="1" parent="1">
          <mxGeometry x="375" y="470" width="40" height="30" as="geometry" />
        </mxCell>
        <mxCell id="lfvt54emDJ42RaypE45g-32" value="Yes" style="text;html=1;align=center;verticalAlign=middle;resizable=0;points=[];autosize=1;strokeColor=none;fillColor=none;" vertex="1" parent="1">
          <mxGeometry x="525" y="395" width="40" height="30" as="geometry" />
        </mxCell>
        <mxCell id="lfvt54emDJ42RaypE45g-33" value="No" style="text;html=1;align=center;verticalAlign=middle;resizable=0;points=[];autosize=1;strokeColor=none;fillColor=none;" vertex="1" parent="1">
          <mxGeometry x="525" y="270" width="40" height="30" as="geometry" />
        </mxCell>
        <mxCell id="lfvt54emDJ42RaypE45g-34" value="Yes" style="text;html=1;align=center;verticalAlign=middle;resizable=0;points=[];autosize=1;strokeColor=none;fillColor=none;" vertex="1" parent="1">
          <mxGeometry x="380" y="340" width="40" height="30" as="geometry" />
        </mxCell>
        <mxCell id="lfvt54emDJ42RaypE45g-44" style="edgeStyle=orthogonalEdgeStyle;rounded=0;orthogonalLoop=1;jettySize=auto;html=1;entryX=0.5;entryY=0;entryDx=0;entryDy=0;" edge="1" parent="1" source="lfvt54emDJ42RaypE45g-38" target="lfvt54emDJ42RaypE45g-43">
          <mxGeometry relative="1" as="geometry" />
        </mxCell>
        <mxCell id="lfvt54emDJ42RaypE45g-38" value="&lt;font face=&quot;Times New Roman&quot;&gt;&lt;span style=&quot;font-size: 15px;&quot;&gt;Insert data&lt;/span&gt;&lt;/font&gt;" style="rounded=0;whiteSpace=wrap;html=1;" vertex="1" parent="1">
          <mxGeometry x="350" y="515" width="140" height="70" as="geometry" />
        </mxCell>
        <mxCell id="lfvt54emDJ42RaypE45g-43" value="&lt;font face=&quot;Times New Roman&quot;&gt;&lt;span style=&quot;font-size: 15px;&quot;&gt;End&lt;/span&gt;&lt;/font&gt;" style="ellipse;whiteSpace=wrap;html=1;align=center;" vertex="1" parent="1">
          <mxGeometry x="355" y="630" width="130" height="80" as="geometry" />
        </mxCell>
        <mxCell id="lfvt54emDJ42RaypE45g-47" value="" style="endArrow=classic;html=1;rounded=0;entryX=1;entryY=0.5;entryDx=0;entryDy=0;exitX=1;exitY=0.5;exitDx=0;exitDy=0;" edge="1" parent="1" source="lfvt54emDJ42RaypE45g-53" target="lfvt54emDJ42RaypE45g-43">
          <mxGeometry width="50" height="50" relative="1" as="geometry">
            <mxPoint x="730" y="295" as="sourcePoint" />
            <mxPoint x="540" y="980" as="targetPoint" />
            <Array as="points">
              <mxPoint x="790" y="295" />
              <mxPoint x="790" y="670" />
            </Array>
          </mxGeometry>
        </mxCell>
        <mxCell id="lfvt54emDJ42RaypE45g-53" value="&lt;font face=&quot;Times New Roman&quot; style=&quot;font-size: 15px;&quot;&gt;Return&lt;/font&gt;" style="rounded=0;whiteSpace=wrap;html=1;" vertex="1" parent="1">
          <mxGeometry x="610" y="270" width="120" height="50" as="geometry" />
        </mxCell>
      </root>
    </mxGraphModel>
  </diagram>
</mxfile>
